<?xml version="1.0" standalone="no"?>
<!DOCTYPE svg PUBLIC "-//W3C//DTD SVG 20010904//EN"
 "http://www.w3.org/TR/2001/REC-SVG-20010904/DTD/svg10.dtd">
<svg version="1.0" xmlns="http://www.w3.org/2000/svg"
 width="512.000000pt" height="512.000000pt" viewBox="0 0 512.000000 512.000000"
 preserveAspectRatio="xMidYMid meet">
<metadata>
Created by potrace 1.11, written by Peter Selinger 2001-2013
</metadata>
<g transform="translate(0.000000,512.000000) scale(0.100000,-0.100000)"
fill="#000000" stroke="none">
<path d="M3060 2525 l0 -495 60 0 60 0 0 495 0 495 -60 0 -60 0 0 -495z"/>
<path d="M1705 2989 c-96 -12 -169 -45 -233 -104 -104 -96 -142 -199 -143
-379 0 -133 13 -195 61 -283 71 -131 180 -192 360 -201 119 -5 181 5 285 47
l70 28 3 77 c2 42 0 76 -4 76 -3 0 -23 -14 -44 -30 -121 -96 -308 -122 -429
-61 -128 66 -191 222 -170 419 14 132 76 229 177 279 49 24 69 28 142 28 104
-1 167 -21 257 -81 36 -24 67 -44 69 -44 2 0 4 34 4 76 l0 75 -52 24 c-104 48
-241 69 -353 54z"/>
<path d="M2420 2754 c-14 -3 -49 -9 -77 -15 l-53 -10 0 -60 c0 -32 2 -59 5
-59 3 0 38 9 77 20 86 24 213 27 263 6 39 -17 64 -50 72 -99 l5 -34 -98 -7
c-226 -17 -337 -64 -373 -159 -17 -44 -14 -163 5 -200 67 -132 245 -164 400
-71 31 19 58 34 60 34 2 0 4 -16 4 -35 l0 -35 60 0 60 0 0 250 c0 140 -5 271
-11 299 -15 73 -45 112 -111 145 -50 24 -71 29 -160 31 -57 2 -114 1 -128 -1z
m288 -451 l-3 -98 -54 -32 c-144 -86 -301 -50 -301 68 0 106 89 154 298 158
l63 1 -3 -97z"/>
<path d="M3602 2745 c-156 -44 -236 -167 -236 -360 1 -251 130 -378 370 -363
50 3 101 14 139 29 l60 24 3 68 c3 66 -4 80 -27 53 -6 -7 -38 -25 -71 -40
-148 -67 -269 -34 -326 89 -19 40 -24 67 -24 136 0 136 34 210 116 250 73 35
149 29 243 -18 42 -21 80 -40 84 -41 4 -2 7 27 5 64 l-3 69 -65 23 c-83 30
-196 37 -268 17z"/>
</g>
</svg>
